<svg xmlns="http://www.w3.org/2000/svg" width="60" height="60" viewBox="0 0 60 60">
  <title>ETEELO CONNECT — motif kuba (texture de fond, à utiliser en faible opacité)</title>
  <g fill="none" stroke="#1B4D6B" stroke-width="1.3" stroke-linecap="square">
    
    <path d="M0 30 L30 0 M30 60 L60 30 M0 60 L60 0"></path>
    <path d="M0 30 L30 60 M30 0 L60 30 M0 0 L60 60"></path>
    
    <path d="M15 15 l4 4 M45 45 l-4 -4 M45 15 l-4 4 M15 45 l4 -4" stroke-width="1.1"></path>
  </g>
  <g fill="#B85C2C">
    
    <path d="M30 26 L34 30 L30 34 L26 30 Z"></path>
    <path d="M30 -4 L34 0 L30 4 L26 0 Z"></path>
    <path d="M30 56 L34 60 L30 64 L26 60 Z"></path>
    <path d="M-4 30 L0 34 L4 30 L0 26 Z"></path>
    <path d="M56 30 L60 34 L64 30 L60 26 Z"></path>
  </g>
  <g fill="#D9A24E">
    
    <path d="M-3 0 L0 3 L3 0 L0 -3 Z"></path>
    <path d="M57 0 L60 3 L63 0 L60 -3 Z"></path>
    <path d="M-3 60 L0 63 L3 60 L0 57 Z"></path>
    <path d="M57 60 L60 63 L63 60 L60 57 Z"></path>
  </g>
</svg>